<svg width="50" height="53" viewBox="0 0 50 53" fill="none" xmlns="http://www.w3.org/2000/svg">
<g clip-path="url(#clip0_39_28)">
<path d="M24.9999 0C23.0245 0 21.4285 1.48027 21.4285 3.3125V5.3C13.2812 6.83203 7.1428 13.5191 7.1428 21.5312V24.1605C7.1428 28.8602 5.41289 33.4252 2.25441 37.0896L0.591464 39.0254C-0.0558578 39.7707 -0.178626 40.7955 0.267803 41.6547C0.714231 42.5139 1.65173 43.0625 2.67852 43.0625H47.3214C48.3482 43.0625 49.2857 42.5139 49.7321 41.6547C50.1785 40.7955 50.0557 39.7707 49.4084 39.0254L47.7455 37.1C44.587 33.4252 42.8571 28.8602 42.8571 24.1605V21.5312C42.8571 13.5191 36.7187 6.83203 28.5714 5.3V3.3125C28.5714 1.48027 26.9754 0 24.9999 0ZM24.9999 9.9375C31.9084 9.9375 37.4999 15.1236 37.4999 21.5312V24.1605C37.4999 29.1189 39.0513 33.9531 41.9307 38.0938H8.06914C10.9486 33.9531 12.4999 29.1189 12.4999 24.1605V21.5312C12.4999 15.1236 18.0915 9.9375 24.9999 9.9375ZM32.1428 46.375H24.9999H17.8571C17.8571 48.1348 18.6049 49.8221 19.9441 51.0643C21.2834 52.3064 23.1026 53 24.9999 53C26.8973 53 28.7165 52.3064 30.0557 51.0643C31.395 49.8221 32.1428 48.1348 32.1428 46.375Z" fill="#C95EEE"/>
</g>
<defs>
<clipPath id="clip0_39_28">
<rect width="50" height="53" fill="white"/>
</clipPath>
</defs>
</svg>
