<svg width="40" height="43" viewBox="0 0 40 43" fill="none" xmlns="http://www.w3.org/2000/svg">
<g clip-path="url(#clip0_39_28)">
<path d="M20 0C18.4196 0 17.1428 1.18422 17.1428 2.65V4.24C10.625 5.46563 5.71424 10.8153 5.71424 17.225V19.3284C5.71424 23.0881 4.33031 26.7402 1.80353 29.6717L0.473171 31.2203C-0.0446863 31.8166 -0.142901 32.6364 0.214242 33.3238C0.571385 34.0111 1.32139 34.45 2.14281 34.45H37.8571C38.6785 34.45 39.4285 34.0111 39.7857 33.3238C40.1428 32.6364 40.0446 31.8166 39.5267 31.2203L38.1964 29.68C35.6696 26.7402 34.2857 23.0881 34.2857 19.3284V17.225C34.2857 10.8153 29.375 5.46563 22.8571 4.24V2.65C22.8571 1.18422 21.5803 0 20 0ZM20 7.95C25.5267 7.95 30 12.0989 30 17.225V19.3284C30 23.2952 31.241 27.1625 33.5446 30.475H6.45531C8.75889 27.1625 9.99996 23.2952 9.99996 19.3284V17.225C9.99996 12.0989 14.4732 7.95 20 7.95ZM25.7142 37.1H20H14.2857C14.2857 38.5078 14.8839 39.8577 15.9553 40.8514C17.0267 41.8452 18.4821 42.4 20 42.4C21.5178 42.4 22.9732 41.8452 24.0446 40.8514C25.116 39.8577 25.7142 38.5078 25.7142 37.1Z" fill="#C95EEE"/>
</g>
<defs>
<clipPath id="clip0_39_28">
<rect width="40" height="42.4" fill="white"/>
</clipPath>
</defs>
</svg>
