<svg width="40" height="40" viewBox="0 0 40 40" fill="none" xmlns="http://www.w3.org/2000/svg">
<g clip-path="url(#clip0_46_21)">
<path d="M9.65625 30.5703C10.6641 29.8359 11.9687 29.6484 13.1406 30.0703C15.2109 30.8203 17.5312 31.25 20 31.25C29.7422 31.25 36.25 24.9609 36.25 18.75C36.25 12.5391 29.7422 6.25 20 6.25C10.2578 6.25 3.75 12.5391 3.75 18.75C3.75 21.25 4.71875 23.6563 6.53906 25.7188C7.21093 26.4766 7.53906 27.4766 7.46093 28.4922C7.35156 29.9063 7.01562 31.2031 6.57812 32.3516C7.90625 31.7344 9.00781 31.0469 9.65625 30.5781V30.5703ZM1.65625 33.7422C1.79687 33.5312 1.92968 33.3203 2.05468 33.1094C2.83593 31.8125 3.57812 30.1094 3.72656 28.1953C1.38281 25.5312 -2.5318e-06 22.2734 -2.5318e-06 18.75C-2.5318e-06 9.77344 8.95312 2.5 20 2.5C31.0469 2.5 40 9.77344 40 18.75C40 27.7266 31.0469 35 20 35C17.1016 35 14.3516 34.5 11.8672 33.6016C10.9375 34.2813 9.42187 35.2109 7.625 35.9922C6.44531 36.5078 5.10156 36.9766 3.71093 37.25C3.64843 37.2656 3.58593 37.2734 3.52343 37.2891C3.17968 37.3516 2.84375 37.4063 2.49218 37.4375C2.47656 37.4375 2.45312 37.4453 2.4375 37.4453C2.03906 37.4844 1.64062 37.5078 1.24218 37.5078C0.734372 37.5078 0.281247 37.2031 0.085935 36.7344C-0.109378 36.2656 -2.5481e-06 35.7344 0.35156 35.375C0.671872 35.0469 0.960935 34.6953 1.23437 34.3203C1.36718 34.1406 1.49219 33.9609 1.60937 33.7812C1.61719 33.7656 1.625 33.7578 1.63281 33.7422H1.65625Z" fill="#C95EEE"/>
</g>
<defs>
<clipPath id="clip0_46_21">
<rect width="40" height="40" fill="white"/>
</clipPath>
</defs>
</svg>
