<svg width="60" height="48" viewBox="0 0 60 48" fill="none" xmlns="http://www.w3.org/2000/svg">
<g clip-path="url(#clip0_39_20)">
<path d="M8.26874 28.9781C9.18749 27.2625 8.90624 25.1531 7.56561 23.7469C5.56874 21.6469 4.49999 19.125 4.49999 16.5C4.49999 10.5469 10.4812 4.5 19.5 4.5C28.5187 4.5 34.5 10.5469 34.5 16.5C34.5 22.4531 28.5187 28.5 19.5 28.5C18.2719 28.5 17.0812 28.3781 15.9562 28.1625C14.9812 27.975 13.9687 28.1063 13.0781 28.5563C12.6937 28.7531 12.3 28.9406 11.8969 29.1188C10.3969 29.7938 8.81249 30.3844 7.21874 30.8063C7.48124 30.375 7.72499 29.9531 7.95936 29.5312C8.06249 29.3531 8.16561 29.1656 8.25936 28.9781H8.26874ZM-1.38225e-05 16.5C-1.38225e-05 20.4188 1.61249 24.0094 4.30311 26.8406C4.21874 27 4.12499 27.1687 4.04061 27.3187C3.07499 29.0437 1.94999 30.7406 0.609361 32.2031C-0.00938882 32.8594 -0.168764 33.8156 0.178111 34.6312C0.543736 35.4656 1.34999 36 2.24999 36C6.28124 36 10.3594 34.7531 13.7531 33.2156C14.2031 33.0094 14.6531 32.7938 15.0844 32.5781C16.5 32.8594 17.9812 33 19.5 33C30.2719 33 39 25.6125 39 16.5C39 7.3875 30.2719 0 19.5 0C8.72811 0 -1.38225e-05 7.3875 -1.38225e-05 16.5ZM40.5 45C42.0187 45 43.4906 44.85 44.9156 44.5781C45.3469 44.7938 45.7969 45.0094 46.2469 45.2156C49.6406 46.7531 53.7187 48 57.75 48C58.65 48 59.4562 47.4656 59.8125 46.6406C60.1687 45.8156 60 44.8594 59.3812 44.2125C58.05 42.75 56.925 41.0531 55.95 39.3281C55.8656 39.1688 55.7719 39.0094 55.6875 38.85C58.3875 36.0094 60 32.4188 60 28.5C60 19.65 51.7594 12.4219 41.4187 12.0187C41.8031 13.4437 42 14.9438 42 16.5V16.5563C50.175 17.1844 55.5 22.8844 55.5 28.5C55.5 31.125 54.4312 33.6469 52.4344 35.7375C51.0937 37.1438 50.8125 39.2625 51.7312 40.9688C51.8344 41.1562 51.9375 41.3438 52.0312 41.5219C52.2656 41.9437 52.5187 42.3656 52.7719 42.7969C51.1781 42.375 49.5937 41.7938 48.0937 41.1094C47.6906 40.9313 47.2969 40.7438 46.9125 40.5469C46.0219 40.0969 45.0094 39.9656 44.0344 40.1531C42.9 40.3781 41.7187 40.4906 40.4906 40.4906C34.7062 40.4906 30.1781 38.0063 27.6656 34.65C26.1656 35.1562 24.5906 35.5312 22.9781 35.7562C26.1562 41.2313 32.8125 45 40.5 45Z" fill="#C95EEE"/>
</g>
<defs>
<clipPath id="clip0_39_20">
<rect width="60" height="48" fill="white"/>
</clipPath>
</defs>
</svg>
