<svg width="40" height="40" viewBox="0 0 40 40" fill="none" xmlns="http://www.w3.org/2000/svg">
<path d="M38.7422 13.0156C38.9922 13.6953 38.7813 14.4531 38.2422 14.9375L34.8594 18.0156C34.9453 18.6641 34.9922 19.3281 34.9922 20C34.9922 20.6719 34.9453 21.3359 34.8594 21.9844L38.2422 25.0625C38.7813 25.5469 38.9922 26.3047 38.7422 26.9844C38.3984 27.9141 37.9844 28.8047 37.5078 29.6641L37.1406 30.2969C36.625 31.1562 36.0469 31.9687 35.4141 32.7344C34.9531 33.2969 34.1875 33.4844 33.5 33.2656L29.1485 31.8828C28.1016 32.6875 26.9453 33.3594 25.711 33.8672L24.7344 38.3281C24.5781 39.0391 24.0313 39.6016 23.3125 39.7187C22.2344 39.8984 21.125 39.9922 19.9922 39.9922C18.8594 39.9922 17.75 39.8984 16.6719 39.7187C15.9531 39.6016 15.4063 39.0391 15.25 38.3281L14.2735 33.8672C13.0391 33.3594 11.8828 32.6875 10.836 31.8828L6.49221 33.2734C5.80471 33.4922 5.03908 33.2969 4.57814 32.7422C3.94533 31.9766 3.36721 31.1641 2.85158 30.3047L2.48439 29.6719C2.00783 28.8125 1.59377 27.9219 1.25002 26.9922C1.00002 26.3125 1.21096 25.5547 1.75002 25.0703L5.13283 21.9922C5.04689 21.3359 5.00002 20.6719 5.00002 20C5.00002 19.3281 5.04689 18.6641 5.13283 18.0156L1.75002 14.9375C1.21096 14.4531 1.00002 13.6953 1.25002 13.0156C1.59377 12.0859 2.00783 11.1953 2.48439 10.3359L2.85158 9.70312C3.36721 8.84375 3.94533 8.03125 4.57814 7.26562C5.03908 6.70312 5.80471 6.51562 6.49221 6.73437L10.8438 8.11719C11.8906 7.3125 13.0469 6.64062 14.2813 6.13281L15.2578 1.67187C15.4141 0.960937 15.961 0.398437 16.6797 0.28125C17.7578 0.09375 18.8672 0 20 0C21.1328 0 22.2422 0.09375 23.3203 0.273437C24.0391 0.390625 24.586 0.953125 24.7422 1.66406L25.7188 6.125C26.9531 6.63281 28.1094 7.30469 29.1563 8.10937L33.5078 6.72656C34.1953 6.50781 34.9609 6.70312 35.4219 7.25781C36.0547 8.02344 36.6328 8.83594 37.1484 9.69531L37.5156 10.3281C37.9922 11.1875 38.4063 12.0781 38.75 13.0078L38.7422 13.0156ZM20 26.25C21.6576 26.25 23.2473 25.5915 24.4194 24.4194C25.5915 23.2473 26.25 21.6576 26.25 20C26.25 18.3424 25.5915 16.7527 24.4194 15.5806C23.2473 14.4085 21.6576 13.75 20 13.75C18.3424 13.75 16.7527 14.4085 15.5806 15.5806C14.4085 16.7527 13.75 18.3424 13.75 20C13.75 21.6576 14.4085 23.2473 15.5806 24.4194C16.7527 25.5915 18.3424 26.25 20 26.25Z" fill="#C95EEE"/>
</svg>
