<svg width="50" height="50" viewBox="0 0 50 50" fill="none" xmlns="http://www.w3.org/2000/svg">
<path d="M48.4277 16.2695C48.7402 17.1191 48.4766 18.0664 47.8027 18.6719L43.5742 22.5195C43.6817 23.3301 43.7402 24.1602 43.7402 25C43.7402 25.8398 43.6817 26.6699 43.5742 27.4805L47.8027 31.3281C48.4766 31.9336 48.7402 32.8809 48.4277 33.7305C47.9981 34.8926 47.4805 36.0059 46.8848 37.0801L46.4258 37.8711C45.7813 38.9453 45.0586 39.9609 44.2676 40.918C43.6914 41.6211 42.7344 41.8555 41.875 41.582L36.4356 39.8535C35.127 40.8594 33.6817 41.6992 32.1387 42.334L30.918 47.9101C30.7227 48.7988 30.0391 49.5019 29.1406 49.6484C27.793 49.873 26.4063 49.9902 24.9903 49.9902C23.5742 49.9902 22.1875 49.873 20.8399 49.6484C19.9414 49.5019 19.2578 48.7988 19.0625 47.9101L17.8418 42.334C16.2988 41.6992 14.8535 40.8594 13.5449 39.8535L8.11526 41.5918C7.25588 41.8652 6.29885 41.6211 5.72268 40.9277C4.93166 39.9707 4.20901 38.9551 3.56448 37.8809L3.10549 37.0898C2.50979 36.0156 1.99221 34.9023 1.56253 33.7402C1.25003 32.8906 1.5137 31.9434 2.18752 31.3379L6.41604 27.4902C6.30862 26.6699 6.25002 25.8398 6.25002 25C6.25002 24.1602 6.30862 23.3301 6.41604 22.5195L2.18752 18.6719C1.5137 18.0664 1.25003 17.1191 1.56253 16.2695C1.99221 15.1074 2.50979 13.9941 3.10549 12.9199L3.56448 12.1289C4.20901 11.0547 4.93166 10.0391 5.72268 9.08203C6.29885 8.37891 7.25588 8.14453 8.11526 8.41797L13.5547 10.1465C14.8633 9.14062 16.3086 8.30078 17.8516 7.66601L19.0723 2.08984C19.2676 1.20117 19.9512 0.498047 20.8496 0.351562C22.1973 0.117187 23.584 0 25 0C26.416 0 27.8028 0.117187 29.1504 0.341797C30.0488 0.488281 30.7324 1.19141 30.9278 2.08008L32.1485 7.65625C33.6914 8.29101 35.1367 9.13086 36.4453 10.1367L41.8848 8.4082C42.7442 8.13476 43.7012 8.37891 44.2774 9.07226C45.0684 10.0293 45.791 11.0449 46.4356 12.1191L46.8945 12.9102C47.4902 13.9844 48.0078 15.0977 48.4375 16.2598L48.4277 16.2695ZM25 32.8125C27.072 32.8125 29.0592 31.9894 30.5243 30.5243C31.9894 29.0591 32.8125 27.072 32.8125 25C32.8125 22.928 31.9894 20.9409 30.5243 19.4757C29.0592 18.0106 27.072 17.1875 25 17.1875C22.928 17.1875 20.9409 18.0106 19.4757 19.4757C18.0106 20.9409 17.1875 22.928 17.1875 25C17.1875 27.072 18.0106 29.0591 19.4757 30.5243C20.9409 31.9894 22.928 32.8125 25 32.8125Z" fill="#C95EEE"/>
</svg>
