<svg width="40" height="43" viewBox="0 0 40 43" fill="none" xmlns="http://www.w3.org/2000/svg">
<g clip-path="url(#clip0_39_24)">
<path d="M27.1429 10.6027C27.1429 8.84517 26.3903 7.15965 25.0508 5.91691C23.7112 4.67417 21.8944 3.976 20 3.976C18.1056 3.976 16.2888 4.67417 14.9492 5.91691C13.6097 7.15965 12.8571 8.84517 12.8571 10.6027C12.8571 12.3602 13.6097 14.0457 14.9492 15.2884C16.2888 16.5312 18.1056 17.2294 20 17.2294C21.8944 17.2294 23.7112 16.5312 25.0508 15.2884C26.3903 14.0457 27.1429 12.3602 27.1429 10.6027ZM8.57143 10.6027C8.57143 7.79067 9.77551 5.09384 11.9188 3.10545C14.0621 1.11706 16.969 0 20 0C23.031 0 25.9379 1.11706 28.0812 3.10545C30.2245 5.09384 31.4286 7.79067 31.4286 10.6027C31.4286 13.4147 30.2245 16.1115 28.0812 18.0999C25.9379 20.0883 23.031 21.2054 20 21.2054C16.969 21.2054 14.0621 20.0883 11.9188 18.0999C9.77551 16.1115 8.57143 13.4147 8.57143 10.6027ZM4.40179 38.4347H35.5982C34.8036 33.1914 29.9464 29.1574 24.0804 29.1574H15.9196C10.0536 29.1574 5.19643 33.1914 4.40179 38.4347ZM0 39.9506C0 31.7915 7.125 25.1814 15.9196 25.1814H24.0804C32.875 25.1814 40 31.7915 40 39.9506C40 41.309 38.8125 42.4107 37.3482 42.4107H2.65179C1.1875 42.4107 0 41.309 0 39.9506Z" fill="#C95EEE"/>
</g>
<defs>
<clipPath id="clip0_39_24">
<rect width="40" height="42.4107" fill="white"/>
</clipPath>
</defs>
</svg>
