<svg width="50" height="54" viewBox="0 0 50 54" fill="none" xmlns="http://www.w3.org/2000/svg">
<g clip-path="url(#clip0_39_24)">
<path d="M33.9286 13.2533C33.9286 11.0565 32.9879 8.94957 31.3135 7.39614C29.639 5.84271 27.368 4.97001 25 4.97001C22.632 4.97001 20.361 5.84271 18.6865 7.39614C17.0121 8.94957 16.0714 11.0565 16.0714 13.2533C16.0714 15.4502 17.0121 17.5571 18.6865 19.1106C20.361 20.664 22.632 21.5367 25 21.5367C27.368 21.5367 29.639 20.664 31.3135 19.1106C32.9879 17.5571 33.9286 15.4502 33.9286 13.2533ZM10.7143 13.2533C10.7143 9.73834 12.2194 6.3673 14.8985 3.88182C17.5776 1.39633 21.2112 0 25 0C28.7888 0 32.4224 1.39633 35.1015 3.88182C37.7806 6.3673 39.2857 9.73834 39.2857 13.2533C39.2857 16.7684 37.7806 20.1394 35.1015 22.6249C32.4224 25.1104 28.7888 26.5067 25 26.5067C21.2112 26.5067 17.5776 25.1104 14.8985 22.6249C12.2194 20.1394 10.7143 16.7684 10.7143 13.2533ZM5.50223 48.0434H44.4978C43.5045 41.4892 37.433 36.4467 30.1004 36.4467H19.8996C12.567 36.4467 6.49554 41.4892 5.50223 48.0434ZM0 49.9382C0 39.7393 8.90625 31.4767 19.8996 31.4767H30.1004C41.0938 31.4767 50 39.7393 50 49.9382C50 51.6363 48.5156 53.0134 46.6853 53.0134H3.31473C1.48438 53.0134 0 51.6363 0 49.9382Z" fill="#C95EEE"/>
</g>
<defs>
<clipPath id="clip0_39_24">
<rect width="50" height="53.0134" fill="white"/>
</clipPath>
</defs>
</svg>
